HIERARCHY
ROOT Hips
{
	OFFSET 0.000000 71.427986 0.000000
	CHANNELS 6 Xposition Yposition Zposition Xrotation Yrotation Zrotation
	JOINT Pelvis
	{
		OFFSET 0.000000 0.000000 0.000000
		CHANNELS 3 Xrotation Yrotation Zrotation
		JOINT LeftUpLeg
		{
			OFFSET 6.797100 -2.508499 -1.318700
			CHANNELS 3 Xrotation Yrotation Zrotation
			JOINT LeftLeg
			{
				OFFSET 0.069008 -29.241863 0.690200
				CHANNELS 3 Xrotation Yrotation Zrotation
				JOINT LeftFoot
				{
					OFFSET -0.069008 -29.568123 -0.266800
					CHANNELS 3 Xrotation Yrotation Zrotation
					JOINT LeftToeBase
					{
						OFFSET 3.145500 -8.631000 16.059900
						CHANNELS 3 Xrotation Yrotation Zrotation
						End Site
						{
							OFFSET 0.000000 18.501587 0.000000
						}
					}
				}
			}
			JOINT Left_ShortSleeve
			{
				OFFSET 0.265923 -10.480953 1.153800
				CHANNELS 3 Xrotation Yrotation Zrotation
				End Site
				{
					OFFSET 1.725763 19.823879 0.000000
				}
			}
		}
		JOINT RightUpLeg
		{
			OFFSET -6.797100 -2.508499 -1.318700
			CHANNELS 3 Xrotation Yrotation Zrotation
			JOINT RightLeg
			{
				OFFSET -0.082453 -29.241932 0.688000
				CHANNELS 3 Xrotation Yrotation Zrotation
				JOINT RightFoot
				{
					OFFSET 0.082453 -29.568058 -0.264600
					CHANNELS 3 Xrotation Yrotation Zrotation
					JOINT RightToeBase
					{
						OFFSET -3.115300 -8.682800 16.113400
						CHANNELS 3 Xrotation Yrotation Zrotation
						End Site
						{
							OFFSET 0.000000 18.567114 0.000000
						}
					}
				}
			}
			JOINT Right_ShortSleeve
			{
				OFFSET -0.265923 -10.480953 1.153800
				CHANNELS 3 Xrotation Yrotation Zrotation
				End Site
				{
					OFFSET -1.725766 19.823910 0.000000
				}
			}
		}
	}
	JOINT Spine
	{
		OFFSET 0.000000 13.368103 0.470500
		CHANNELS 3 Xrotation Yrotation Zrotation
		JOINT Spine1
		{
			OFFSET 0.147000 13.837402 0.538800
			CHANNELS 3 Xrotation Yrotation Zrotation
			JOINT Spine2
			{
				OFFSET 0.168000 16.242897 -1.435500
				CHANNELS 3 Xrotation Yrotation Zrotation
				JOINT Neck
				{
					OFFSET 0.217200 18.631500 -1.679100
					CHANNELS 3 Xrotation Yrotation Zrotation
					JOINT Head
					{
						OFFSET 0.000000 6.599396 1.385900
						CHANNELS 3 Xrotation Yrotation Zrotation
						JOINT Hat
						{
							OFFSET -0.532200 27.220596 -10.096100
							CHANNELS 3 Xrotation Yrotation Zrotation
							End Site
							{
								OFFSET 0.000000 22.029861 0.000000
							}
						}
						JOINT HairD
						{
							OFFSET -10.777400 17.437393 -1.325900
							CHANNELS 3 Xrotation Yrotation Zrotation
							JOINT HairD1
							{
								OFFSET -3.290299 -11.051193 1.062200
								CHANNELS 3 Xrotation Yrotation Zrotation
								End Site
								{
									OFFSET 0.000000 11.579437 0.000000
								}
							}
						}
						JOINT HairB
						{
							OFFSET -10.777400 17.437393 1.467900
							CHANNELS 3 Xrotation Yrotation Zrotation
							JOINT HairB1
							{
								OFFSET -1.561200 -12.956299 3.590200
								CHANNELS 3 Xrotation Yrotation Zrotation
								End Site
								{
									OFFSET 0.000000 13.534866 0.000000
								}
							}
						}
						JOINT HairA
						{
							OFFSET 9.713100 17.437393 1.467900
							CHANNELS 3 Xrotation Yrotation Zrotation
							JOINT HairA1
							{
								OFFSET 1.561200 -12.956299 3.590200
								CHANNELS 3 Xrotation Yrotation Zrotation
								End Site
								{
									OFFSET 0.000000 13.534866 0.000000
								}
							}
						}
						JOINT HairC
						{
							OFFSET 9.713100 17.437393 -1.325900
							CHANNELS 3 Xrotation Yrotation Zrotation
							JOINT HairC1
							{
								OFFSET 3.290300 -11.051193 1.062200
								CHANNELS 3 Xrotation Yrotation Zrotation
								End Site
								{
									OFFSET 0.000000 11.579437 0.000000
								}
							}
						}
					}
				}
				JOINT LeftShoulder
				{
					OFFSET 5.101800 15.108002 -2.763700
					CHANNELS 3 Xrotation Yrotation Zrotation
					JOINT LeftArm
					{
						OFFSET 9.825497 2.506317 -1.597400
						CHANNELS 3 Xrotation Yrotation Zrotation
						JOINT LeftForeArm
						{
							OFFSET 21.966244 0.000000 0.000000
							CHANNELS 3 Xrotation Yrotation Zrotation
							JOINT LeftHand
							{
								OFFSET 33.879036 0.000000 0.000000
								CHANNELS 3 Xrotation Yrotation Zrotation
								JOINT LeftHandThumb1
								{
									OFFSET 6.715286 -2.359680 3.363841
									CHANNELS 3 Xrotation Yrotation Zrotation
									JOINT LeftHandThumb2
									{
										OFFSET 2.507072 -1.447464 1.447461
										CHANNELS 3 Xrotation Yrotation Zrotation
										JOINT LeftHandThumb3
										{
											OFFSET 2.898338 -1.673355 1.673357
											CHANNELS 3 Xrotation Yrotation Zrotation
											End Site
											{
												OFFSET -0.295959 3.727692 -0.131651
											}
										}
									}
								}
								JOINT LeftHandIndex1
								{
									OFFSET 14.190811 -0.254547 3.840278
									CHANNELS 3 Xrotation Yrotation Zrotation
									JOINT LeftHandIndex2
									{
										OFFSET 3.551727 0.000000 -0.000000
										CHANNELS 3 Xrotation Yrotation Zrotation
										JOINT LeftHandIndex3
										{
											OFFSET 2.894196 0.000000 0.000000
											CHANNELS 3 Xrotation Yrotation Zrotation
											End Site
											{
												OFFSET -1.000603 2.690872 0.366626
											}
										}
									}
								}
								JOINT LeftHandMiddle1
								{
									OFFSET 13.776489 0.000000 0.000000
									CHANNELS 3 Xrotation Yrotation Zrotation
									JOINT LeftHandMiddle2
									{
										OFFSET 3.438232 0.000000 0.000000
										CHANNELS 3 Xrotation Yrotation Zrotation
										JOINT LeftHandMiddle3
										{
											OFFSET 3.691551 0.000000 0.000000
											CHANNELS 3 Xrotation Yrotation Zrotation
											End Site
											{
												OFFSET -1.082298 3.499527 0.457670
											}
										}
									}
								}
								JOINT LeftHandRing1
								{
									OFFSET 13.966164 -0.268127 -3.067488
									CHANNELS 3 Xrotation Yrotation Zrotation
									JOINT LeftHandRing2
									{
										OFFSET 3.162567 0.000000 0.000000
										CHANNELS 3 Xrotation Yrotation Zrotation
										JOINT LeftHandRing3
										{
											OFFSET 3.324348 0.000000 0.000000
											CHANNELS 3 Xrotation Yrotation Zrotation
											End Site
											{
												OFFSET -0.861900 3.184998 0.405154
											}
										}
									}
								}
								JOINT LeftHandPinky1
								{
									OFFSET 13.131393 -0.168503 -5.746925
									CHANNELS 3 Xrotation Yrotation Zrotation
									JOINT LeftHandPinky2
									{
										OFFSET 2.849182 0.000000 0.000000
										CHANNELS 3 Xrotation Yrotation Zrotation
										JOINT LeftHandPinky3
										{
											OFFSET 2.805038 0.000000 0.000000
											CHANNELS 3 Xrotation Yrotation Zrotation
											End Site
											{
												OFFSET -0.882500 2.642609 0.325652
											}
										}
									}
								}
							}
							JOINT Left_Sleeve
							{
								OFFSET 6.592125 -0.646545 0.805568
								CHANNELS 3 Xrotation Yrotation Zrotation
								End Site
								{
									OFFSET -0.000179 20.275787 -0.000000
								}
							}
						}
					}
				}
				JOINT RightShoulder
				{
					OFFSET -5.731700 15.108002 -2.763700
					CHANNELS 3 Xrotation Yrotation Zrotation
					JOINT RightArm
					{
						OFFSET -9.825497 2.506317 -1.597400
						CHANNELS 3 Xrotation Yrotation Zrotation
						JOINT RightForeArm
						{
							OFFSET -21.966242 0.000000 0.000000
							CHANNELS 3 Xrotation Yrotation Zrotation
							JOINT RightHand
							{
								OFFSET -33.879032 0.000000 0.000000
								CHANNELS 3 Xrotation Yrotation Zrotation
								JOINT RightHandThumb1
								{
									OFFSET -6.715286 -2.359680 3.363841
									CHANNELS 3 Xrotation Yrotation Zrotation
									JOINT RightHandThumb2
									{
										OFFSET -2.507072 -1.447464 1.447461
										CHANNELS 3 Xrotation Yrotation Zrotation
										JOINT RightHandThumb3
										{
											OFFSET -2.898338 -1.673355 1.673357
											CHANNELS 3 Xrotation Yrotation Zrotation
											End Site
											{
												OFFSET 0.295959 3.727692 -0.131651
											}
										}
									}
								}
								JOINT RightHandIndex1
								{
									OFFSET -14.190811 -0.254547 3.840278
									CHANNELS 3 Xrotation Yrotation Zrotation
									JOINT RightHandIndex2
									{
										OFFSET -3.551727 0.000000 -0.000000
										CHANNELS 3 Xrotation Yrotation Zrotation
										JOINT RightHandIndex3
										{
											OFFSET -2.894196 0.000000 0.000000
											CHANNELS 3 Xrotation Yrotation Zrotation
											End Site
											{
												OFFSET 1.000603 2.690872 0.366626
											}
										}
									}
								}
								JOINT RightHandMiddle1
								{
									OFFSET -13.776489 0.000000 0.000000
									CHANNELS 3 Xrotation Yrotation Zrotation
									JOINT RightHandMiddle2
									{
										OFFSET -3.438232 0.000000 0.000000
										CHANNELS 3 Xrotation Yrotation Zrotation
										JOINT RightHandMiddle3
										{
											OFFSET -3.691551 0.000000 0.000000
											CHANNELS 3 Xrotation Yrotation Zrotation
											End Site
											{
												OFFSET 1.082298 3.499527 0.457670
											}
										}
									}
								}
								JOINT RightHandRing1
								{
									OFFSET -13.966164 -0.268127 -3.067488
									CHANNELS 3 Xrotation Yrotation Zrotation
									JOINT RightHandRing2
									{
										OFFSET -3.162567 0.000000 0.000000
										CHANNELS 3 Xrotation Yrotation Zrotation
										JOINT RightHandRing3
										{
											OFFSET -3.324348 0.000000 0.000000
											CHANNELS 3 Xrotation Yrotation Zrotation
											End Site
											{
												OFFSET 0.861900 3.184998 0.405154
											}
										}
									}
								}
								JOINT RightHandPinky1
								{
									OFFSET -13.131393 -0.168503 -5.746925
									CHANNELS 3 Xrotation Yrotation Zrotation
									JOINT RightHandPinky2
									{
										OFFSET -2.849182 0.000000 0.000000
										CHANNELS 3 Xrotation Yrotation Zrotation
										JOINT RightHandPinky3
										{
											OFFSET -2.805038 0.000000 0.000000
											CHANNELS 3 Xrotation Yrotation Zrotation
											End Site
											{
												OFFSET 0.882500 2.642609 0.325652
											}
										}
									}
								}
							}
							JOINT Right_Sleeve
							{
								OFFSET -6.592125 -0.646545 0.805568
								CHANNELS 3 Xrotation Yrotation Zrotation
								End Site
								{
									OFFSET 0.000179 20.275787 -0.000000
								}
							}
						}
					}
				}
				JOINT Bind_Right_JacketString
				{
					OFFSET -3.534800 11.969597 7.200700
					CHANNELS 3 Xrotation Yrotation Zrotation
					JOINT Bind_Right_JacketString1
					{
						OFFSET -0.319900 -6.102600 2.794100
						CHANNELS 3 Xrotation Yrotation Zrotation
						End Site
						{
							OFFSET 0.000000 6.719452 0.000000
						}
					}
				}
				JOINT Bind_Left_JacketString
				{
					OFFSET 2.904800 11.969597 7.200700
					CHANNELS 3 Xrotation Yrotation Zrotation
					JOINT Bind_Left_JacketString1
					{
						OFFSET 0.364800 -5.904503 3.186800
						CHANNELS 3 Xrotation Yrotation Zrotation
						End Site
						{
							OFFSET 0.000000 6.719513 0.000000
						}
					}
				}
				JOINT HairE
				{
					OFFSET 5.915200 17.612701 -11.592200
					CHANNELS 3 Xrotation Yrotation Zrotation
					JOINT HairE1
					{
						OFFSET 0.289200 -7.171898 -1.284500
						CHANNELS 3 Xrotation Yrotation Zrotation
						End Site
						{
							OFFSET 0.000000 7.291756 0.000000
						}
					}
				}
				JOINT HairF
				{
					OFFSET -0.864800 17.612701 -11.592200
					CHANNELS 3 Xrotation Yrotation Zrotation
					JOINT HairF1
					{
						OFFSET 0.000000 -14.087097 -2.127501
						CHANNELS 3 Xrotation Yrotation Zrotation
						End Site
						{
							OFFSET 0.000000 14.246841 0.000000
						}
					}
				}
				JOINT HairG
				{
					OFFSET -8.087700 17.612701 -11.592200
					CHANNELS 3 Xrotation Yrotation Zrotation
					JOINT HairG1
					{
						OFFSET -0.293600 -6.081398 -0.910100
						CHANNELS 3 Xrotation Yrotation Zrotation
						End Site
						{
							OFFSET 0.000000 6.156120 0.000000
						}
					}
				}
			}
		}
	}
	JOINT Pouch
	{
		OFFSET 0.000000 4.394501 10.847300
		CHANNELS 3 Xrotation Yrotation Zrotation
		End Site
		{
			OFFSET 0.000000 21.880577 0.000000
		}
	}
	JOINT Bag
	{
		OFFSET -13.229000 4.813004 -0.593300
		CHANNELS 3 Xrotation Yrotation Zrotation
		End Site
		{
			OFFSET 0.000000 21.880577 0.000000
		}
	}
	JOINT OccupyGuyFacialAnim_Joint
	{
		OFFSET 1.000000 -70.206398 -1.655000
		CHANNELS 3 Xrotation Yrotation Zrotation
		End Site
		{
			OFFSET 0.000000 21.880577 0.000000
		}
	}
}
MOTION
Frames: 4
Frame Time: 0.033333
-1.353947 69.068901 1.306148 -3.466910 -6.151212 -4.841264 -0.000000 -0.000000 0.000000 -20.700502 13.868837 17.239963 17.502944 -4.489678 3.756771 3.271451 0.310981 -10.072620 0.000000 -0.000000 0.000000 -0.000000 0.000002 -0.000000 -0.177977 -8.378263 8.239681 22.536455 -7.643304 1.216356 -18.674437 0.484219 -3.058367 0.000000 -0.000002 -0.000000 -0.000000 -0.000000 -0.000000 -2.191036 -1.548712 5.067004 0.009676 -2.154146 6.568474 0.064565 -1.918778 6.641596 5.206370 0.427649 -2.739553 2.504430 4.236931 -10.273268 0.000000 0.000000 -0.000000 0.000000 0.000000 -0.000000 0.000000 0.000000 -0.000000 0.000000 0.000000 -0.000000 -0.000000 0.000000 -0.000000 0.000000 0.000000 -0.000000 -0.000000 0.000000 -0.000000 0.000000 0.000000 -0.000000 0.000000 0.000000 -0.000000 0.621062 2.555245 -10.266825 9.248265 -15.412197 -78.680070 0.000003 -13.252451 -0.000015 1.718760 -10.711974 -3.301836 1.517259 13.006208 9.166414 -0.621529 20.107882 9.779308 -0.000002 -0.000001 -0.000004 -0.039921 0.134034 -7.390373 0.689345 3.007849 -25.811370 -0.000001 0.000002 0.000002 0.136655 1.367794 -11.497234 0.846405 3.312487 -28.659436 -0.000001 0.000002 -0.000004 0.133500 1.432165 -15.866639 1.704336 4.539517 -41.139834 -0.000004 -0.000001 -0.000004 1.116184 4.207941 -20.660899 0.943445 -0.597300 -30.556969 -0.000001 -0.000003 -0.000001 0.000003 -0.000001 0.000001 0.523791 5.294977 13.728274 14.884761 1.099568 56.305423 -0.000001 11.196556 -0.000001 -11.273088 -0.944701 2.742545 -4.141505 -8.002468 -6.703789 7.995682 -23.280591 -8.633438 0.000001 -0.000002 0.000001 -0.035525 -0.263336 8.347942 0.432134 -2.417357 20.267832 -0.000001 -0.000001 0.000000 0.096395 -1.156178 9.617216 1.059544 -3.694507 31.994956 0.000002 0.000001 0.000001 0.548458 -2.764826 18.803929 1.489273 -4.305103 38.149724 0.000001 -0.000001 0.000001 0.464959 -2.533976 24.448198 1.039759 -3.662713 31.686521 0.000000 0.000000 0.000001 0.000000 0.000000 -0.000000 0.000000 -0.000001 -0.000000 -0.000000 0.000000 -0.000000 0.000000 -0.000001 0.000000 0.000000 -0.000001 0.000000 0.000000 -0.000001 -0.000000 -0.000000 0.000000 0.000000 0.000000 -0.000001 0.000000 0.000000 -0.000001 0.000000 0.000000 -0.000001 -0.000000 -0.000000 0.000000 0.000000 -0.000000 -0.000000 0.000000 -0.000000 -0.000000 0.000000 -0.000000 -0.000000 0.000000 
-1.352303 69.071274 1.319957 -3.446186 -6.123347 -4.831434 -0.000000 0.000000 -0.000000 -20.716420 13.880246 17.242099 17.503733 -4.518961 3.725329 3.260377 0.312984 -10.047875 0.000000 0.000000 0.000000 -0.000000 -0.000000 -0.000000 -0.169253 -8.381390 8.228570 22.506447 -7.656272 1.227153 -18.673382 0.484643 -3.055556 -0.000000 0.000002 -0.000000 -0.000000 0.000000 -0.000000 -2.206254 -1.546292 5.063434 -0.004112 -2.148086 6.563504 0.050490 -1.912511 6.636645 5.241552 0.419078 -2.744593 2.654608 4.200665 -10.348479 -0.000000 0.000000 0.000000 -0.000000 0.000000 0.000000 -0.000000 0.000000 0.000000 -0.000000 0.000000 0.000000 -0.000000 0.000000 0.000000 -0.000000 0.000000 0.000000 -0.000000 0.000000 0.000000 -0.000000 0.000000 0.000000 -0.000000 0.000000 0.000000 0.619575 2.530278 -10.256083 9.253653 -15.434861 -78.732369 0.000001 -13.252276 -0.000002 1.570565 -10.770141 -3.170374 1.517259 13.006208 9.166413 -0.621526 20.107882 9.779306 0.000001 0.000001 0.000000 -0.039920 0.134034 -7.390374 0.689348 3.007851 -25.811370 -0.000003 0.000000 -0.000002 0.136657 1.367792 -11.497234 0.846410 3.312488 -28.659433 0.000001 0.000001 0.000001 0.133397 1.431722 -15.862870 1.702971 4.537931 -41.122397 -0.000002 -0.000001 -0.000002 1.115387 4.206837 -20.650090 0.942224 -0.599384 -30.536973 0.000001 -0.000004 -0.000001 0.000000 0.000001 -0.000001 0.522722 5.319034 13.722272 14.984042 1.221661 56.326395 -0.000001 11.152662 -0.000003 -11.052587 -0.983955 2.995701 -4.137306 -7.996140 -6.712987 7.996580 -23.295101 -8.620912 0.000001 0.000001 0.000003 -0.036225 -0.257949 8.341451 0.432646 -2.418729 20.279856 -0.000000 -0.000001 -0.000002 0.096196 -1.154988 9.607680 1.060420 -3.695904 32.008531 0.000001 -0.000000 -0.000003 0.550192 -2.769579 18.814480 1.490990 -4.307279 38.172551 0.000001 -0.000000 -0.000002 0.466168 -2.537017 24.472018 1.040594 -3.664066 31.699615 0.000000 0.000001 -0.000006 -0.000000 0.000000 -0.000001 -0.000000 -0.000001 -0.000000 -0.000000 -0.000001 -0.000001 -0.000000 -0.000001 -0.000000 -0.000000 -0.000001 -0.000000 -0.000000 -0.000001 -0.000000 -0.000000 -0.000001 -0.000000 -0.000000 -0.000001 -0.000000 -0.000000 -0.000001 -0.000000 -0.000000 -0.000001 -0.000000 -0.000000 -0.000001 -0.000000 -0.000000 0.000000 -0.000000 -0.000000 0.000000 -0.000000 -0.000000 0.000000 -0.000000 
-1.350486 69.074089 1.335624 -3.427615 -6.098407 -4.818544 0.000000 0.000000 0.000000 -20.725118 13.890685 17.242374 17.504183 -4.541982 3.689747 3.245925 0.313625 -10.021940 0.000000 -0.000000 -0.000000 -0.000001 -0.000000 0.000001 -0.155875 -8.389450 8.217445 22.474118 -7.668311 1.229303 -18.673059 0.484049 -3.048214 0.000000 0.000000 0.000000 -0.000000 -0.000000 0.000001 -2.221428 -1.541722 5.045862 -0.023030 -2.141414 6.544980 0.031089 -1.906506 6.618066 5.259445 0.416275 -2.754621 2.798520 4.191974 -10.445399 0.000000 -0.000001 -0.000000 0.000000 -0.000001 -0.000000 0.000000 -0.000001 -0.000000 0.000000 -0.000001 -0.000000 -0.000000 -0.000001 -0.000000 0.000000 -0.000001 -0.000000 -0.000000 -0.000001 -0.000000 0.000000 -0.000001 -0.000000 0.000000 -0.000001 -0.000000 0.618090 2.526395 -10.238590 9.269053 -15.445880 -78.746057 -0.000007 -13.252206 -0.000022 1.426195 -10.813150 -3.101921 1.517257 13.006206 9.166410 -0.621529 20.107884 9.779304 0.000001 0.000001 -0.000002 -0.039924 0.134041 -7.390375 0.689348 3.007853 -25.811365 -0.000001 0.000000 -0.000002 0.136654 1.367797 -11.497237 0.846405 3.312490 -28.659433 0.000000 -0.000001 0.000000 0.133122 1.430407 -15.851863 1.698903 4.533315 -41.071242 -0.000004 -0.000002 -0.000002 1.113050 4.203623 -20.618395 0.938612 -0.605493 -30.478377 -0.000004 -0.000002 -0.000001 -0.000000 -0.000001 0.000001 0.520796 5.364678 13.728386 15.095688 1.378347 56.436303 -0.000003 11.048567 0.000023 -10.891923 -0.973984 3.186938 -4.140645 -7.995666 -6.704661 7.997019 -23.302003 -8.614917 -0.000000 -0.000001 0.000001 -0.035657 -0.262311 8.346694 0.432888 -2.419386 20.285602 -0.000001 -0.000000 0.000000 0.096358 -1.155951 9.615430 1.060839 -3.696568 32.014989 0.000001 0.000000 0.000001 0.549465 -2.767304 18.820040 1.491805 -4.308311 38.183411 0.000001 -0.000000 0.000004 0.466549 -2.538033 24.483394 1.040997 -3.664711 31.705912 0.000000 0.000002 -0.000001 -0.000000 -0.000000 -0.000000 -0.000000 -0.000001 -0.000001 -0.000000 -0.000001 -0.000001 -0.000000 -0.000001 -0.000000 -0.000000 -0.000001 -0.000000 -0.000000 -0.000001 -0.000001 -0.000000 -0.000001 -0.000001 -0.000000 -0.000001 -0.000000 -0.000000 -0.000001 -0.000000 -0.000000 -0.000001 -0.000001 -0.000000 -0.000001 -0.000001 0.000000 0.000000 0.000000 0.000000 0.000000 0.000000 0.000000 0.000000 0.000000 
-1.348292 69.077522 1.353283 -3.412322 -6.078086 -4.801980 0.000000 -0.000000 0.000000 -20.735957 13.910794 17.248666 17.519652 -4.557947 3.638731 3.215418 0.315221 -9.983601 0.000000 -0.000001 -0.000000 0.000001 0.000000 0.000000 -0.138809 -8.392319 8.210649 22.439403 -7.688312 1.214528 -18.672948 0.481192 -3.030504 -0.000000 -0.000000 0.000000 0.000000 -0.000000 -0.000000 -2.230416 -1.534501 5.010841 -0.043809 -2.135294 6.509201 0.009667 -1.902455 6.582062 5.256145 0.422115 -2.769874 2.950120 4.224300 -10.568578 -0.000000 -0.000000 -0.000000 -0.000000 -0.000000 -0.000000 -0.000000 -0.000000 -0.000000 -0.000000 -0.000000 -0.000000 -0.000000 0.000000 -0.000000 -0.000000 -0.000000 -0.000000 -0.000000 0.000000 -0.000000 -0.000000 -0.000000 -0.000000 -0.000000 -0.000000 -0.000000 0.616335 2.549859 -10.207264 9.290139 -15.432379 -78.727486 -0.000004 -13.252216 -0.000016 1.305601 -10.832970 -3.087919 1.517259 13.006208 9.166410 -0.621531 20.107886 9.779307 -0.000001 0.000001 0.000000 -0.039921 0.134039 -7.390376 0.689349 3.007851 -25.811370 -0.000003 -0.000000 -0.000000 0.136659 1.367795 -11.497235 0.846409 3.312489 -28.659433 0.000004 0.000000 -0.000005 0.132683 1.428290 -15.833897 1.692346 4.525785 -40.988105 0.000000 0.000002 -0.000001 1.109266 4.198378 -20.566845 0.932782 -0.615405 -30.383075 0.000000 0.000000 -0.000001 -0.000000 0.000001 0.000001 0.518078 5.426262 13.753593 15.206750 1.569768 56.666948 -0.000002 10.889492 0.000028 -10.821716 -0.928634 3.297458 -4.154241 -8.012900 -6.674183 7.994771 -23.265965 -8.646081 -0.000000 -0.000002 -0.000001 -0.033391 -0.279838 8.367878 0.431626 -2.415971 20.255691 -0.000000 -0.000001 -0.000002 0.097005 -1.159814 9.646489 1.058667 -3.693099 31.981306 -0.000000 -0.000001 0.000001 0.544241 -2.752775 18.794063 1.487548 -4.302911 38.126727 -0.000000 -0.000001 -0.000003 0.463401 -2.530142 24.423633 1.038909 -3.661342 31.673264 0.000000 0.000001 -0.000003 0.000000 0.000000 -0.000001 -0.000000 0.000000 -0.000001 -0.000001 0.000000 -0.000000 -0.000000 0.000000 -0.000001 -0.000000 0.000000 -0.000001 -0.000000 0.000000 -0.000001 -0.000001 0.000000 -0.000000 -0.000000 0.000000 -0.000001 -0.000000 0.000000 -0.000001 -0.000000 0.000000 -0.000001 -0.000001 0.000000 -0.000000 0.000000 -0.000000 0.000000 0.000000 -0.000000 0.000000 0.000000 -0.000000 0.000000 
